<svg width="1920" height="1080" viewBox="0 0 1920 1080" fill="none" xmlns="http://www.w3.org/2000/svg">
<g clip-path="url(#clip0_45_28)">
<path d="M1920 0H0V1080H1920V0Z" fill="#E9D758"/>
<path d="M897.71 -1616.06C856.957 -1529.79 746.702 -1269.43 653.191 -1098.45C559.68 -927.476 446.23 -762.989 336.645 -590.206C227.059 -417.423 100.285 -248.289 -4.32259 -61.7542C-108.93 124.781 -190.458 333.312 -291.001 529.005C-391.543 724.698 -504.632 926.776 -607.58 1112.4C-710.528 1298.03 -858.506 1554.38 -908.691 1642.77L1022.47 2713.23L2828.87 -545.601L897.71 -1616.06Z" fill="url(#paint0_linear_45_28)"/>
<path d="M1173.59 -1463.14C1124.67 -1348.67 1002.92 -978.35 880.074 -776.338C757.226 -574.326 567.126 -470.964 436.498 -251.064C305.871 -31.1645 209.314 297.656 96.309 543.06C-16.6958 788.464 -120.011 1012.59 -241.531 1221.36C-363.051 1430.13 -567.598 1699.97 -632.811 1795.7L1022.47 2713.23L2828.87 -545.601L1173.59 -1463.14Z" fill="url(#paint1_linear_45_28)"/>
<path d="M1449.47 -1310.21C1383.11 -1194.6 1164.07 -844.937 1051.32 -616.548C938.558 -388.159 872.883 -152.911 772.925 60.1185C672.968 273.148 576.664 450.348 451.572 661.627C326.48 872.905 157.124 1113.29 22.3735 1327.79C-112.377 1542.29 -293.714 1845.15 -356.931 1948.62L1022.47 2713.23L2828.87 -545.601L1449.47 -1310.21Z" fill="url(#paint2_linear_45_28)"/>
<path d="M1725.35 -1157.29C1671.73 -1091.41 1489.33 -912.467 1403.6 -762.03C1317.88 -611.593 1286.94 -426.596 1211 -254.669C1135.06 -82.7418 1033.53 121.379 947.965 269.534C862.405 417.688 786.756 500.904 697.635 634.259C608.513 767.613 494.293 888.658 413.237 1069.66C332.181 1250.66 293.678 1548.28 211.297 1720.26C128.916 1892.24 -32.3262 2037.99 -81.0509 2101.54L1022.47 2713.23L2828.87 -545.601L1725.35 -1157.29Z" fill="url(#paint3_linear_45_28)"/>
<path d="M2001.23 -1004.37C1979.89 -942.121 1941.38 -772.907 1873.18 -630.879C1804.99 -488.852 1680.24 -310.142 1592.07 -152.204C1503.89 5.73299 1409.31 189.592 1344.14 316.745C1278.96 443.898 1293.96 495.398 1201.03 610.713C1108.09 726.029 882.535 875.916 786.528 1008.64C690.52 1141.37 675.407 1267.02 624.982 1407.07C574.557 1547.12 555.67 1707.71 483.978 1848.94C412.285 1990.17 243.02 2186.88 194.829 2254.46L1022.47 2713.23L2828.87 -545.601L2001.23 -1004.37Z" fill="url(#paint4_linear_45_28)"/>
<path d="M2277.11 -851.446C2218.79 -753.739 2013.26 -443.283 1927.16 -265.2C1841.07 -87.1164 1850.8 31.7463 1760.56 217.052C1670.32 402.359 1489.84 669.089 1385.72 846.637C1281.6 1024.19 1251.3 1103.46 1135.83 1282.34C1020.36 1461.23 803.749 1732.42 692.896 1919.93C582.043 2107.44 507.74 2326.14 470.709 2407.39L1022.47 2713.23L2828.87 -545.601L2277.11 -851.446Z" fill="url(#paint5_linear_45_28)"/>
<path d="M2552.99 -698.524C2484.4 -569.707 2287.84 -217.623 2141.47 74.3752C1995.09 366.374 1831.19 779.277 1674.75 1053.47C1518.32 1327.66 1357.53 1468.38 1202.83 1719.52C1048.14 1970.66 822.63 2420.18 746.589 2560.31L1022.47 2713.23L2828.87 -545.601L2552.99 -698.524Z" fill="url(#paint6_linear_45_28)"/>
</g>
<defs>
<linearGradient id="paint0_linear_45_28" x1="1062.94" y1="-1524.47" x2="-1244.53" y2="1383.71" gradientUnits="userSpaceOnUse">
<stop stop-color="#E9BF58"/>
</linearGradient>
<linearGradient id="paint1_linear_45_28" x1="1293.78" y1="-1396.51" x2="-1073.14" y2="1442.68" gradientUnits="userSpaceOnUse">
<stop stop-color="#EBDA64"/>
<stop offset="0.142857" stop-color="#EBC364"/>
</linearGradient>
<linearGradient id="paint2_linear_45_28" x1="1575.17" y1="-1240.54" x2="-884.674" y2="1475.42" gradientUnits="userSpaceOnUse">
<stop stop-color="#ECDD71"/>
<stop offset="0.285714" stop-color="#ECC871"/>
</linearGradient>
<linearGradient id="paint3_linear_45_28" x1="1764.99" y1="-1135.32" x2="-773.906" y2="1456.17" gradientUnits="userSpaceOnUse">
<stop stop-color="#EEE07D"/>
<stop offset="0.428571" stop-color="#EECD7D"/>
</linearGradient>
<linearGradient id="paint4_linear_45_28" x1="2012.28" y1="-998.242" x2="-650.816" y2="1336.67" gradientUnits="userSpaceOnUse">
<stop stop-color="#F0E38A"/>
<stop offset="0.571429" stop-color="#F0D28A"/>
</linearGradient>
<linearGradient id="paint5_linear_45_28" x1="2298.75" y1="-839.45" x2="-492.372" y2="907.744" gradientUnits="userSpaceOnUse">
<stop stop-color="#F1E696"/>
<stop offset="0.714286" stop-color="#F1D796"/>
</linearGradient>
<linearGradient id="paint6_linear_45_28" x1="2570.22" y1="-688.973" x2="139.263" y2="-154.121" gradientUnits="userSpaceOnUse">
<stop stop-color="#F3E9A2"/>
<stop offset="0.857143" stop-color="#F3DBA2"/>
</linearGradient>
<clipPath id="clip0_45_28">
<rect width="1920" height="1080" fill="white"/>
</clipPath>
</defs>
</svg>
