<svg width="142" height="124" viewBox="0 0 142 124" fill="none" xmlns="http://www.w3.org/2000/svg">
<path d="M16.1123 29C16.1123 41.8959 25.6851 52.5559 38.1123 54.2618V77V77.5H38.6123H101.612H102.112V77V54.4566C115.497 53.6802 126.112 42.5797 126.112 29C126.112 14.9167 114.696 3.5 100.612 3.5C97.7829 3.5 95.0612 3.9608 92.518 4.81146C89.1087 2.11187 84.7987 0.5 80.1123 0.5C76.674 0.5 73.4383 1.36763 70.6123 2.8959C67.7863 1.36763 64.5506 0.5 61.1123 0.5C56.558 0.5 52.3593 2.02225 48.9971 4.5857C46.6595 3.87958 44.1803 3.5 41.6123 3.5C27.529 3.5 16.1123 14.9167 16.1123 29Z" fill="url(#paint0_radial_86_119)" stroke="url(#paint1_linear_86_119)"/>
<g filter="url(#filter0_d_86_119)">
<path d="M50.6123 40V46V52" stroke="black" stroke-linecap="square"/>
</g>
<g filter="url(#filter1_d_86_119)">
<path d="M60.6123 32V42V52" stroke="black" stroke-linecap="square"/>
</g>
<g filter="url(#filter2_d_86_119)">
<line x1="71.1123" y1="27.5" x2="71.1123" y2="51.5" stroke="black" stroke-linecap="square"/>
</g>
<g filter="url(#filter3_d_86_119)">
<path d="M90.6123 40V46V52" stroke="black" stroke-linecap="square"/>
</g>
<g filter="url(#filter4_d_86_119)">
<path d="M80.6123 32V42V52" stroke="black" stroke-linecap="square"/>
</g>
<g filter="url(#filter5_d_86_119)">
<path d="M16.8919 107.871C19.3402 108.074 21.3634 107.635 22.9617 106.553C24.5965 105.475 25.511 103.766 25.7051 101.427C25.8597 99.5639 25.4223 97.9639 24.3926 96.6274C23.366 95.2545 21.4777 94.0676 18.7277 93.0667L15.0367 91.6565C12.3233 90.6586 10.3116 89.1855 9.00161 87.2372C7.69162 85.2888 7.14582 82.9991 7.36419 80.3682C7.50977 78.6142 8.04821 77.0032 8.9795 75.5352C9.94733 74.0703 11.3111 72.9325 13.0709 72.1219C14.8671 71.3144 17.0808 71.0199 19.7117 71.2382C22.635 71.4809 24.9464 72.2246 26.6459 73.4695C28.3485 74.6778 29.4756 76.1695 30.0273 77.9445C30.5791 79.7196 30.5903 81.5785 30.0611 83.5214L25.3751 84.1259C26.1322 80.767 26.0019 78.1255 24.9842 76.2014C24.0031 74.2803 22.1057 73.203 19.2921 72.9695C17.0631 72.7844 15.2591 73.2418 13.88 74.3415C12.504 75.4046 11.722 77.069 11.534 79.3345C11.3854 81.1251 11.7696 82.7022 12.6865 84.0661C13.6066 85.3934 15.3335 86.5302 17.8672 87.4763L21.5582 88.8865C27.5211 91.0739 30.2765 94.8899 29.8246 100.334C29.6638 102.271 29.0615 103.987 28.0176 105.483C27.0132 106.945 25.5596 108.056 23.6567 108.818C21.7904 109.583 19.4869 109.852 16.7463 109.625C14.8462 109.467 13.0434 109.023 11.338 108.293C9.66906 107.565 8.27256 106.438 7.14845 104.909C6.06088 103.384 5.42076 101.344 5.22809 98.7896L8.60777 97.9663C8.5903 100.393 8.96546 102.301 9.73326 103.689C10.5011 105.077 11.5199 106.1 12.7899 106.757C14.0629 107.378 15.4303 107.749 16.8919 107.871Z" fill="black"/>
<path d="M65.9169 97.248L65.8876 98.3477C65.7776 102.49 64.6448 105.779 62.4894 108.216C60.3715 110.617 57.4066 111.767 53.5946 111.666C49.8192 111.566 46.9196 110.26 44.8956 107.748C42.9092 105.201 41.971 101.857 42.081 97.7151L42.1103 96.6155C42.2193 92.5103 43.3328 89.2571 45.4506 86.8558C47.5695 84.4179 50.5349 83.2496 54.3469 83.3508C58.1589 83.4521 61.0581 84.7763 63.0444 87.3232C65.0685 89.8346 66.0259 93.1428 65.9169 97.248ZM60.9978 96.017C61.0991 92.205 60.5669 89.4582 59.4011 87.7766C58.273 86.0594 56.5727 85.1706 54.3001 85.1102C52.0643 85.0508 50.3191 85.8481 49.0648 87.502C47.848 89.1203 47.189 91.8354 47.0877 95.6474L47.0001 98.9462C46.8978 102.795 47.4108 105.578 48.5389 107.295C49.7046 108.977 51.4054 109.847 53.6413 109.906C55.9139 109.967 57.6585 109.188 58.8752 107.57C60.1296 105.916 60.8079 103.164 60.9102 99.3158L60.9978 96.017Z" fill="black"/>
<path d="M106.063 109.141L106.107 110.57L97.6415 110.835L97.504 106.437C96.2752 108.199 94.8487 109.51 93.2248 110.367C91.6363 111.187 90.0357 111.623 88.4232 111.673C85.8211 111.754 83.7614 110.993 82.2438 109.39C80.7618 107.749 79.9733 105.407 79.8782 102.365L79.4486 88.6221C79.4085 87.3394 79.33 86.5899 79.2132 86.3734C79.0964 86.1569 78.7437 86.0212 78.155 85.9663L75.1229 85.7859L75.0765 84.3016L83.8172 84.0284L84.3843 102.17C84.4691 104.882 84.9324 106.793 85.7741 107.904C86.6514 108.977 87.878 109.489 89.4539 109.44C90.6267 109.403 91.8979 108.996 93.2677 108.22C94.6741 107.442 95.9676 105.989 97.1484 103.862L96.6552 88.0843C96.6151 86.8016 96.5366 86.052 96.4198 85.8355C96.3019 85.5824 95.9491 85.4467 95.3616 85.4284L91.23 85.2824L91.1836 83.7981L101.024 83.4905L101.735 106.249C101.775 107.532 101.854 108.282 101.971 108.498C102.087 108.715 102.44 108.85 103.029 108.905L106.063 109.141Z" fill="black"/>
<path d="M125.702 97.8879L122.289 97.3539C117.622 96.5783 115.112 94.1448 114.76 90.0533C114.643 88.7016 114.843 87.3962 115.361 86.1372C115.878 84.8782 116.781 83.8251 118.07 82.978C119.392 82.0913 121.13 81.5551 123.286 81.3694C125.697 81.1617 127.668 81.3967 129.198 82.0745C130.729 82.7523 131.841 83.7054 132.536 84.9336C133.23 86.1618 133.533 87.5343 133.442 89.051L129.234 90.1863C129.468 87.774 129.054 85.9512 127.99 84.7179C126.964 83.4815 125.391 82.9545 123.272 83.1371C121.628 83.2787 120.35 83.8121 119.436 84.7373C118.518 85.626 118.128 86.8557 118.263 88.4266C118.364 89.5956 118.819 90.6052 119.628 91.4556C120.434 92.2694 121.715 92.8215 123.469 93.112L126.992 93.6365C129.454 94.0133 131.397 94.7844 132.822 95.9497C134.284 97.1118 135.105 98.734 135.284 100.816C135.486 103.154 134.791 105.128 133.2 106.737C131.645 108.343 129.297 109.281 126.155 109.552C124.657 109.681 123.177 109.588 121.715 109.272C120.286 108.917 118.999 108.292 117.855 107.397C116.744 106.462 115.881 105.211 115.268 103.645L118.242 102.284C118.842 104.551 119.858 106.083 121.288 106.88C122.718 107.677 124.31 108 126.064 107.849C127.087 107.761 128.04 107.513 128.925 107.105C129.847 106.695 130.57 106.117 131.095 105.373C131.616 104.592 131.828 103.635 131.731 102.503C131.63 101.334 131.142 100.364 130.266 99.5926C129.389 98.8216 127.868 98.2534 125.702 97.8879Z" fill="black"/>
</g>
<path d="M38 54L72 54L102 54" stroke="black"/>
<defs>
<filter id="filter0_d_86_119" x="46.1123" y="37.5" width="7" height="19" filterUnits="userSpaceOnUse" color-interpolation-filters="sRGB">
<feFlood flood-opacity="0" result="BackgroundImageFix"/>
<feColorMatrix in="SourceAlpha" type="matrix" values="0 0 0 0 0 0 0 0 0 0 0 0 0 0 0 0 0 0 127 0" result="hardAlpha"/>
<feOffset dx="-1" dy="1"/>
<feGaussianBlur stdDeviation="1.5"/>
<feComposite in2="hardAlpha" operator="out"/>
<feColorMatrix type="matrix" values="0 0 0 0 0 0 0 0 0 0 0 0 0 0 0 0 0 0 1 0"/>
<feBlend mode="normal" in2="BackgroundImageFix" result="effect1_dropShadow_86_119"/>
<feBlend mode="normal" in="SourceGraphic" in2="effect1_dropShadow_86_119" result="shape"/>
</filter>
<filter id="filter1_d_86_119" x="56.1123" y="29.5" width="7" height="27" filterUnits="userSpaceOnUse" color-interpolation-filters="sRGB">
<feFlood flood-opacity="0" result="BackgroundImageFix"/>
<feColorMatrix in="SourceAlpha" type="matrix" values="0 0 0 0 0 0 0 0 0 0 0 0 0 0 0 0 0 0 127 0" result="hardAlpha"/>
<feOffset dx="-1" dy="1"/>
<feGaussianBlur stdDeviation="1.5"/>
<feComposite in2="hardAlpha" operator="out"/>
<feColorMatrix type="matrix" values="0 0 0 0 0 0 0 0 0 0 0 0 0 0 0 0 0 0 1 0"/>
<feBlend mode="normal" in2="BackgroundImageFix" result="effect1_dropShadow_86_119"/>
<feBlend mode="normal" in="SourceGraphic" in2="effect1_dropShadow_86_119" result="shape"/>
</filter>
<filter id="filter2_d_86_119" x="66.6123" y="25" width="7" height="31" filterUnits="userSpaceOnUse" color-interpolation-filters="sRGB">
<feFlood flood-opacity="0" result="BackgroundImageFix"/>
<feColorMatrix in="SourceAlpha" type="matrix" values="0 0 0 0 0 0 0 0 0 0 0 0 0 0 0 0 0 0 127 0" result="hardAlpha"/>
<feOffset dx="-1" dy="1"/>
<feGaussianBlur stdDeviation="1.5"/>
<feComposite in2="hardAlpha" operator="out"/>
<feColorMatrix type="matrix" values="0 0 0 0 0 0 0 0 0 0 0 0 0 0 0 0 0 0 1 0"/>
<feBlend mode="normal" in2="BackgroundImageFix" result="effect1_dropShadow_86_119"/>
<feBlend mode="normal" in="SourceGraphic" in2="effect1_dropShadow_86_119" result="shape"/>
</filter>
<filter id="filter3_d_86_119" x="86.1123" y="37.5" width="7" height="19" filterUnits="userSpaceOnUse" color-interpolation-filters="sRGB">
<feFlood flood-opacity="0" result="BackgroundImageFix"/>
<feColorMatrix in="SourceAlpha" type="matrix" values="0 0 0 0 0 0 0 0 0 0 0 0 0 0 0 0 0 0 127 0" result="hardAlpha"/>
<feOffset dx="-1" dy="1"/>
<feGaussianBlur stdDeviation="1.5"/>
<feComposite in2="hardAlpha" operator="out"/>
<feColorMatrix type="matrix" values="0 0 0 0 0 0 0 0 0 0 0 0 0 0 0 0 0 0 1 0"/>
<feBlend mode="normal" in2="BackgroundImageFix" result="effect1_dropShadow_86_119"/>
<feBlend mode="normal" in="SourceGraphic" in2="effect1_dropShadow_86_119" result="shape"/>
</filter>
<filter id="filter4_d_86_119" x="76.1123" y="29.5" width="7" height="27" filterUnits="userSpaceOnUse" color-interpolation-filters="sRGB">
<feFlood flood-opacity="0" result="BackgroundImageFix"/>
<feColorMatrix in="SourceAlpha" type="matrix" values="0 0 0 0 0 0 0 0 0 0 0 0 0 0 0 0 0 0 127 0" result="hardAlpha"/>
<feOffset dx="-1" dy="1"/>
<feGaussianBlur stdDeviation="1.5"/>
<feComposite in2="hardAlpha" operator="out"/>
<feColorMatrix type="matrix" values="0 0 0 0 0 0 0 0 0 0 0 0 0 0 0 0 0 0 1 0"/>
<feBlend mode="normal" in2="BackgroundImageFix" result="effect1_dropShadow_86_119"/>
<feBlend mode="normal" in="SourceGraphic" in2="effect1_dropShadow_86_119" result="shape"/>
</filter>
<filter id="filter5_d_86_119" x="0.413574" y="68.2328" width="137.55" height="47.8303" filterUnits="userSpaceOnUse" color-interpolation-filters="sRGB">
<feFlood flood-opacity="0" result="BackgroundImageFix"/>
<feColorMatrix in="SourceAlpha" type="matrix" values="0 0 0 0 0 0 0 0 0 0 0 0 0 0 0 0 0 0 127 0" result="hardAlpha"/>
<feOffset dx="-1" dy="1"/>
<feGaussianBlur stdDeviation="1.5"/>
<feComposite in2="hardAlpha" operator="out"/>
<feColorMatrix type="matrix" values="0 0 0 0 0 0 0 0 0 0 0 0 0 0 0 0 0 0 0.25 0"/>
<feBlend mode="normal" in2="BackgroundImageFix" result="effect1_dropShadow_86_119"/>
<feBlend mode="normal" in="SourceGraphic" in2="effect1_dropShadow_86_119" result="shape"/>
</filter>
<radialGradient id="paint0_radial_86_119" cx="0" cy="0" r="1" gradientUnits="userSpaceOnUse" gradientTransform="translate(70.6123 28.5) rotate(90) scale(51.5 73.8618)">
<stop offset="0.758749" stop-color="#E9D758"/>
<stop offset="0.87147" stop-color="#E9D758" stop-opacity="0.25"/>
<stop offset="0.952047" stop-color="#E9D758" stop-opacity="0"/>
</radialGradient>
<linearGradient id="paint1_linear_86_119" x1="71.1123" y1="1" x2="71.1123" y2="77" gradientUnits="userSpaceOnUse">
<stop offset="0.703125"/>
<stop offset="0.932292" stop-opacity="0"/>
</linearGradient>
</defs>
</svg>
